<svg width="680" height="214" viewBox="0 0 680 214" fill="none" xmlns="http://www.w3.org/2000/svg">
<path d="M297.234 161.702H299.109C299.012 162.601 298.754 163.405 298.338 164.115C297.921 164.824 297.332 165.387 296.57 165.804C295.808 166.214 294.858 166.419 293.719 166.419C292.885 166.419 292.127 166.263 291.443 165.951C290.766 165.638 290.183 165.195 289.695 164.622C289.207 164.043 288.829 163.35 288.562 162.542C288.302 161.729 288.172 160.824 288.172 159.827V158.411C288.172 157.415 288.302 156.514 288.562 155.706C288.829 154.893 289.21 154.196 289.705 153.617C290.206 153.037 290.808 152.591 291.512 152.279C292.215 151.966 293.006 151.81 293.885 151.81C294.959 151.81 295.867 152.012 296.609 152.415C297.351 152.819 297.928 153.379 298.338 154.095C298.754 154.805 299.012 155.628 299.109 156.566H297.234C297.143 155.902 296.974 155.332 296.726 154.857C296.479 154.375 296.127 154.004 295.672 153.743C295.216 153.483 294.62 153.353 293.885 153.353C293.253 153.353 292.696 153.473 292.215 153.714C291.739 153.955 291.339 154.297 291.013 154.74C290.694 155.182 290.454 155.713 290.291 156.331C290.128 156.95 290.047 157.637 290.047 158.392V159.827C290.047 160.524 290.118 161.178 290.262 161.79C290.411 162.402 290.636 162.939 290.935 163.402C291.235 163.864 291.616 164.229 292.078 164.495C292.54 164.756 293.087 164.886 293.719 164.886C294.519 164.886 295.157 164.759 295.633 164.505C296.108 164.251 296.466 163.887 296.707 163.411C296.954 162.936 297.13 162.367 297.234 161.702Z" fill="white"/>
<path d="M314.941 153.265L310.234 166.224H308.31L313.73 152.005H314.97L314.941 153.265ZM318.887 166.224L314.17 153.265L314.14 152.005H315.381L320.82 166.224H318.887ZM318.642 160.96V162.503H310.654V160.96H318.642Z" fill="white"/>
<path d="M330.724 152.005H335.431C336.499 152.005 337.401 152.168 338.137 152.493C338.879 152.819 339.442 153.301 339.826 153.939C340.217 154.57 340.412 155.348 340.412 156.273C340.412 156.924 340.278 157.52 340.012 158.06C339.751 158.594 339.373 159.049 338.879 159.427C338.39 159.798 337.804 160.075 337.121 160.257L336.594 160.462H332.17L332.15 158.929H335.49C336.167 158.929 336.73 158.812 337.179 158.577C337.629 158.337 337.967 158.014 338.195 157.611C338.423 157.207 338.537 156.761 338.537 156.273C338.537 155.726 338.429 155.247 338.215 154.837C338 154.427 337.661 154.111 337.199 153.89C336.743 153.662 336.154 153.548 335.431 153.548H332.609V166.224H330.724V152.005ZM339.035 166.224L335.578 159.779L337.541 159.769L341.047 166.107V166.224H339.035Z" fill="white"/>
<path d="M361.556 159.144V164.349C361.381 164.609 361.101 164.902 360.717 165.228C360.332 165.547 359.802 165.827 359.125 166.068C358.454 166.302 357.588 166.419 356.527 166.419C355.661 166.419 354.864 166.27 354.135 165.97C353.412 165.664 352.784 165.221 352.25 164.642C351.722 164.056 351.312 163.346 351.019 162.513C350.733 161.673 350.59 160.723 350.59 159.661V158.558C350.59 157.497 350.713 156.549 350.961 155.716C351.215 154.883 351.586 154.176 352.074 153.597C352.562 153.011 353.161 152.568 353.871 152.269C354.581 151.963 355.394 151.81 356.312 151.81C357.4 151.81 358.308 151.999 359.037 152.376C359.773 152.747 360.345 153.262 360.756 153.919C361.172 154.577 361.439 155.326 361.556 156.165H359.672C359.587 155.651 359.418 155.182 359.164 154.759C358.916 154.336 358.562 153.997 358.099 153.743C357.637 153.483 357.041 153.353 356.312 153.353C355.655 153.353 355.085 153.473 354.603 153.714C354.122 153.955 353.724 154.3 353.412 154.749C353.099 155.199 352.865 155.742 352.709 156.38C352.559 157.018 352.484 157.738 352.484 158.538V159.661C352.484 160.482 352.579 161.214 352.767 161.859C352.963 162.503 353.239 163.053 353.597 163.509C353.956 163.958 354.382 164.3 354.877 164.534C355.378 164.769 355.931 164.886 356.537 164.886C357.207 164.886 357.751 164.831 358.168 164.72C358.584 164.603 358.91 164.466 359.144 164.31C359.379 164.147 359.558 163.994 359.681 163.851V160.667H356.39V159.144H361.556Z" fill="white"/>
<path d="M383.629 158.665V159.564C383.629 160.631 383.495 161.589 383.228 162.435C382.961 163.281 382.577 164.001 382.076 164.593C381.575 165.186 380.972 165.638 380.269 165.951C379.573 166.263 378.791 166.419 377.926 166.419C377.086 166.419 376.314 166.263 375.611 165.951C374.914 165.638 374.309 165.186 373.795 164.593C373.287 164.001 372.893 163.281 372.613 162.435C372.333 161.589 372.193 160.631 372.193 159.564V158.665C372.193 157.598 372.33 156.644 372.603 155.804C372.883 154.958 373.277 154.238 373.785 153.646C374.293 153.047 374.895 152.591 375.592 152.279C376.295 151.966 377.066 151.81 377.906 151.81C378.772 151.81 379.553 151.966 380.25 152.279C380.953 152.591 381.555 153.047 382.056 153.646C382.564 154.238 382.952 154.958 383.219 155.804C383.492 156.644 383.629 157.598 383.629 158.665ZM381.763 159.564V158.646C381.763 157.799 381.676 157.051 381.5 156.4C381.331 155.749 381.08 155.202 380.748 154.759C380.416 154.316 380.009 153.981 379.527 153.753C379.052 153.525 378.512 153.411 377.906 153.411C377.32 153.411 376.789 153.525 376.314 153.753C375.845 153.981 375.442 154.316 375.103 154.759C374.771 155.202 374.514 155.749 374.332 156.4C374.15 157.051 374.058 157.799 374.058 158.646V159.564C374.058 160.417 374.15 161.172 374.332 161.829C374.514 162.48 374.775 163.031 375.113 163.48C375.458 163.923 375.865 164.258 376.334 164.486C376.809 164.714 377.34 164.827 377.926 164.827C378.538 164.827 379.081 164.714 379.556 164.486C380.032 164.258 380.432 163.923 380.758 163.48C381.09 163.031 381.34 162.48 381.51 161.829C381.679 161.172 381.763 160.417 381.763 159.564Z" fill="white"/>
<path d="M414.99 162.63C414.99 162.298 414.938 162.005 414.834 161.751C414.736 161.491 414.56 161.256 414.306 161.048C414.059 160.84 413.714 160.641 413.271 160.452C412.835 160.264 412.282 160.072 411.611 159.876C410.908 159.668 410.273 159.437 409.707 159.183C409.14 158.923 408.655 158.626 408.252 158.294C407.848 157.962 407.539 157.581 407.324 157.152C407.109 156.722 407.002 156.23 407.002 155.677C407.002 155.124 407.116 154.613 407.344 154.144C407.571 153.675 407.897 153.268 408.32 152.923C408.75 152.572 409.261 152.298 409.853 152.103C410.446 151.908 411.107 151.81 411.836 151.81C412.903 151.81 413.808 152.015 414.551 152.425C415.299 152.829 415.869 153.359 416.26 154.017C416.65 154.668 416.845 155.365 416.845 156.107H414.97C414.97 155.573 414.857 155.101 414.629 154.691C414.401 154.274 414.056 153.949 413.594 153.714C413.131 153.473 412.545 153.353 411.836 153.353C411.165 153.353 410.612 153.454 410.176 153.656C409.739 153.857 409.414 154.131 409.199 154.476C408.991 154.821 408.887 155.215 408.887 155.658C408.887 155.957 408.948 156.23 409.072 156.478C409.202 156.719 409.401 156.943 409.668 157.152C409.941 157.36 410.286 157.552 410.703 157.728C411.126 157.904 411.631 158.073 412.217 158.236C413.024 158.464 413.72 158.717 414.306 158.997C414.892 159.277 415.374 159.593 415.752 159.945C416.136 160.29 416.419 160.684 416.601 161.126C416.79 161.562 416.885 162.057 416.885 162.611C416.885 163.19 416.767 163.714 416.533 164.183C416.299 164.652 415.963 165.052 415.527 165.384C415.091 165.716 414.567 165.973 413.955 166.156C413.349 166.331 412.672 166.419 411.924 166.419C411.266 166.419 410.618 166.328 409.98 166.146C409.349 165.964 408.773 165.69 408.252 165.326C407.737 164.961 407.324 164.512 407.012 163.978C406.706 163.437 406.553 162.812 406.553 162.103H408.428C408.428 162.591 408.522 163.011 408.711 163.363C408.9 163.708 409.157 163.994 409.482 164.222C409.814 164.45 410.189 164.619 410.605 164.73C411.028 164.834 411.468 164.886 411.924 164.886C412.581 164.886 413.138 164.795 413.594 164.613C414.049 164.43 414.394 164.17 414.629 163.831C414.87 163.493 414.99 163.092 414.99 162.63Z" fill="white"/>
<path d="M438.234 158.665V159.564C438.234 160.631 438.101 161.589 437.834 162.435C437.567 163.281 437.183 164.001 436.681 164.593C436.18 165.186 435.578 165.638 434.875 165.951C434.178 166.263 433.397 166.419 432.531 166.419C431.691 166.419 430.92 166.263 430.217 165.951C429.52 165.638 428.914 165.186 428.4 164.593C427.892 164.001 427.498 163.281 427.219 162.435C426.939 161.589 426.799 160.631 426.799 159.564V158.665C426.799 157.598 426.935 156.644 427.209 155.804C427.489 154.958 427.883 154.238 428.39 153.646C428.898 153.047 429.5 152.591 430.197 152.279C430.9 151.966 431.672 151.81 432.512 151.81C433.377 151.81 434.159 151.966 434.855 152.279C435.558 152.591 436.161 153.047 436.662 153.646C437.17 154.238 437.557 154.958 437.824 155.804C438.097 156.644 438.234 157.598 438.234 158.665ZM436.369 159.564V158.646C436.369 157.799 436.281 157.051 436.105 156.4C435.936 155.749 435.685 155.202 435.353 154.759C435.021 154.316 434.614 153.981 434.133 153.753C433.657 153.525 433.117 153.411 432.512 153.411C431.926 153.411 431.395 153.525 430.92 153.753C430.451 153.981 430.047 154.316 429.709 154.759C429.377 155.202 429.12 155.749 428.937 156.4C428.755 157.051 428.664 157.799 428.664 158.646V159.564C428.664 160.417 428.755 161.172 428.937 161.829C429.12 162.48 429.38 163.031 429.719 163.48C430.064 163.923 430.47 164.258 430.939 164.486C431.414 164.714 431.945 164.827 432.531 164.827C433.143 164.827 433.687 164.714 434.162 164.486C434.637 164.258 435.038 163.923 435.363 163.48C435.695 163.031 435.946 162.48 436.115 161.829C436.284 161.172 436.369 160.417 436.369 159.564Z" fill="white"/>
<path d="M457.679 164.691V166.224H450.57V164.691H457.679ZM450.941 152.005V166.224H449.056V152.005H450.941Z" fill="white"/>
<path d="M475.445 152.005H477.32V161.624C477.32 162.692 477.082 163.581 476.607 164.29C476.132 165 475.5 165.534 474.713 165.892C473.931 166.243 473.082 166.419 472.164 166.419C471.2 166.419 470.328 166.243 469.547 165.892C468.772 165.534 468.157 165 467.701 164.29C467.252 163.581 467.027 162.692 467.027 161.624V152.005H468.892V161.624C468.892 162.367 469.029 162.979 469.302 163.46C469.576 163.942 469.957 164.3 470.445 164.534C470.94 164.769 471.513 164.886 472.164 164.886C472.821 164.886 473.394 164.769 473.882 164.534C474.377 164.3 474.761 163.942 475.035 163.46C475.308 162.979 475.445 162.367 475.445 161.624V152.005Z" fill="white"/>
<path d="M493.533 152.005V166.224H491.677V152.005H493.533ZM498.103 152.005V153.548H487.117V152.005H498.103Z" fill="white"/>
<path d="M510.234 152.005V166.224H508.349V152.005H510.234Z" fill="white"/>
<path d="M532.609 158.665V159.564C532.609 160.631 532.475 161.589 532.209 162.435C531.942 163.281 531.557 164.001 531.056 164.593C530.555 165.186 529.953 165.638 529.25 165.951C528.553 166.263 527.772 166.419 526.906 166.419C526.066 166.419 525.294 166.263 524.591 165.951C523.895 165.638 523.289 165.186 522.775 164.593C522.267 164.001 521.873 163.281 521.593 162.435C521.313 161.589 521.173 160.631 521.173 159.564V158.665C521.173 157.598 521.31 156.644 521.584 155.804C521.864 154.958 522.257 154.238 522.765 153.646C523.273 153.047 523.875 152.591 524.572 152.279C525.275 151.966 526.046 151.81 526.886 151.81C527.752 151.81 528.533 151.966 529.23 152.279C529.933 152.591 530.535 153.047 531.037 153.646C531.544 154.238 531.932 154.958 532.199 155.804C532.472 156.644 532.609 157.598 532.609 158.665ZM530.744 159.564V158.646C530.744 157.799 530.656 157.051 530.48 156.4C530.311 155.749 530.06 155.202 529.728 154.759C529.396 154.316 528.989 153.981 528.507 153.753C528.032 153.525 527.492 153.411 526.886 153.411C526.3 153.411 525.77 153.525 525.294 153.753C524.826 153.981 524.422 154.316 524.084 154.759C523.752 155.202 523.494 155.749 523.312 156.4C523.13 157.051 523.039 157.799 523.039 158.646V159.564C523.039 160.417 523.13 161.172 523.312 161.829C523.494 162.48 523.755 163.031 524.093 163.48C524.438 163.923 524.845 164.258 525.314 164.486C525.789 164.714 526.32 164.827 526.906 164.827C527.518 164.827 528.061 164.714 528.537 164.486C529.012 164.258 529.412 163.923 529.738 163.48C530.07 163.031 530.321 162.48 530.49 161.829C530.659 161.172 530.744 160.417 530.744 159.564Z" fill="white"/>
<path d="M554.369 152.005V166.224H552.474L545.316 155.257V166.224H543.431V152.005H545.316L552.503 163.001V152.005H554.369Z" fill="white"/>
<path d="M573.286 162.63C573.286 162.298 573.234 162.005 573.13 161.751C573.032 161.491 572.857 161.256 572.603 161.048C572.355 160.84 572.01 160.641 571.568 160.452C571.131 160.264 570.578 160.072 569.907 159.876C569.204 159.668 568.57 159.437 568.003 159.183C567.437 158.923 566.952 158.626 566.548 158.294C566.144 157.962 565.835 157.581 565.62 157.152C565.406 156.722 565.298 156.23 565.298 155.677C565.298 155.124 565.412 154.613 565.64 154.144C565.868 153.675 566.193 153.268 566.616 152.923C567.046 152.572 567.557 152.298 568.15 152.103C568.742 151.908 569.403 151.81 570.132 151.81C571.2 151.81 572.105 152.015 572.847 152.425C573.596 152.829 574.165 153.359 574.556 154.017C574.947 154.668 575.142 155.365 575.142 156.107H573.267C573.267 155.573 573.153 155.101 572.925 154.691C572.697 154.274 572.352 153.949 571.89 153.714C571.428 153.473 570.842 153.353 570.132 153.353C569.461 153.353 568.908 153.454 568.472 153.656C568.036 153.857 567.71 154.131 567.495 154.476C567.287 154.821 567.183 155.215 567.183 155.658C567.183 155.957 567.245 156.23 567.368 156.478C567.499 156.719 567.697 156.943 567.964 157.152C568.238 157.36 568.583 157.552 568.999 157.728C569.422 157.904 569.927 158.073 570.513 158.236C571.32 158.464 572.017 158.717 572.603 158.997C573.189 159.277 573.67 159.593 574.048 159.945C574.432 160.29 574.715 160.684 574.898 161.126C575.086 161.562 575.181 162.057 575.181 162.611C575.181 163.19 575.064 163.714 574.829 164.183C574.595 164.652 574.26 165.052 573.823 165.384C573.387 165.716 572.863 165.973 572.251 166.156C571.646 166.331 570.969 166.419 570.22 166.419C569.562 166.419 568.915 166.328 568.277 166.146C567.645 165.964 567.069 165.69 566.548 165.326C566.034 164.961 565.62 164.512 565.308 163.978C565.002 163.437 564.849 162.812 564.849 162.103H566.724C566.724 162.591 566.818 163.011 567.007 163.363C567.196 163.708 567.453 163.994 567.779 164.222C568.111 164.45 568.485 164.619 568.902 164.73C569.325 164.834 569.764 164.886 570.22 164.886C570.878 164.886 571.434 164.795 571.89 164.613C572.346 164.43 572.691 164.17 572.925 163.831C573.166 163.493 573.286 163.092 573.286 162.63Z" fill="white"/>
<path d="M287 134.197V79.6513H301.263V134.197H287Z" fill="white"/>
<path d="M380.693 134.197H362.566L333.305 92.9332H332.89C333.013 94.6494 333.12 96.3781 333.212 98.1191C333.305 99.8602 333.397 101.601 333.489 103.342C333.581 105.059 333.673 106.787 333.765 108.528V134.197H321.02V79.6513H339.01L368.225 120.504H368.547C368.486 118.813 368.409 117.134 368.317 115.468C368.225 113.801 368.133 112.135 368.041 110.468C367.979 108.802 367.918 107.135 367.857 105.469V79.6513H380.693V134.197Z" fill="white"/>
<path d="M440.202 119.049C440.202 122.283 439.236 125.093 437.303 127.481C435.371 129.869 432.549 131.71 428.838 133.003C425.157 134.296 420.679 134.943 415.404 134.943C413.072 134.943 410.787 134.819 408.548 134.57C406.34 134.321 404.208 133.961 402.153 133.488C400.129 132.99 398.196 132.381 396.356 131.66V120.915C399.546 122.059 402.859 123.091 406.294 124.012C409.729 124.932 413.134 125.392 416.508 125.392C418.839 125.392 420.71 125.143 422.121 124.646C423.562 124.148 424.605 123.464 425.249 122.594C425.893 121.723 426.215 120.728 426.215 119.609C426.215 118.241 425.648 117.072 424.513 116.102C423.378 115.132 421.814 114.224 419.82 113.378C417.857 112.533 415.634 111.625 413.149 110.655C411.585 110.058 409.883 109.337 408.042 108.491C406.202 107.62 404.454 106.563 402.797 105.32C401.141 104.076 399.776 102.571 398.702 100.805C397.66 99.0146 397.138 96.8755 397.138 94.3883C397.138 91.13 398.058 88.3442 399.899 86.0311C401.739 83.7179 404.362 81.952 407.766 80.7332C411.201 79.4896 415.25 78.8678 419.912 78.8678C423.409 78.8678 426.737 79.2036 429.896 79.8752C433.086 80.5218 436.414 81.467 439.88 82.7106L435.279 91.702C432.181 90.6823 429.405 89.8988 426.952 89.3516C424.498 88.7795 421.998 88.4935 419.452 88.4935C417.673 88.4935 416.155 88.7298 414.897 89.2023C413.64 89.65 412.689 90.2967 412.045 91.1424C411.401 91.9632 411.079 92.9208 411.079 94.0152C411.079 95.3086 411.539 96.4029 412.459 97.2983C413.41 98.1689 414.821 99.0146 416.692 99.8354C418.593 100.656 420.955 101.614 423.777 102.708C427.212 104.026 430.142 105.407 432.565 106.849C435.018 108.267 436.905 109.946 438.224 111.886C439.543 113.801 440.202 116.189 440.202 119.049Z" fill="white"/>
<path d="M455.221 134.197V79.6513H469.483V134.197H455.221Z" fill="white"/>
<path d="M514.776 103.566H541.46V131.846C537.933 132.792 534.268 133.55 530.464 134.122C526.661 134.669 522.352 134.943 517.536 134.943C510.85 134.943 505.175 133.873 500.513 131.734C495.851 129.595 492.308 126.437 489.885 122.258C487.462 118.079 486.251 112.943 486.251 106.849C486.251 101.129 487.6 96.1791 490.299 92.0005C493.029 87.8219 497.001 84.5885 502.215 82.3002C507.46 80.012 513.855 78.8678 521.401 78.8678C524.959 78.8678 528.471 79.1787 531.937 79.8005C535.403 80.4223 538.547 81.2307 541.368 82.2256L536.63 91.4782C534.575 90.6325 532.228 89.9236 529.59 89.3516C526.952 88.7795 524.192 88.4935 521.309 88.4935C517.168 88.4935 513.564 89.2645 510.497 90.8066C507.46 92.3487 505.099 94.5126 503.412 97.2983C501.755 100.059 500.927 103.318 500.927 107.073C500.927 110.63 501.525 113.789 502.722 116.55C503.918 119.286 505.804 121.437 508.381 123.004C510.957 124.546 514.316 125.317 518.456 125.317C520.481 125.317 522.183 125.243 523.563 125.093C524.974 124.919 526.293 124.745 527.52 124.571V113.192H514.776V103.566Z" fill="white"/>
<path d="M615.462 134.197H601.245V110.655H574.606V134.197H560.344V79.6513H574.606V101.029H601.245V79.6513H615.462V134.197Z" fill="white"/>
<path d="M661.26 134.197H646.998V89.277H628.732V79.6513H679.525V89.277H661.26V134.197Z" fill="white"/>
<path d="M172.37 44.8682L233.5 105.998L172.37 167.128L167.161 161.92L222.665 106.415L166.744 50.4942L172.37 44.8682Z" fill="white"/>
<path d="M162.678 161.803L107.744 106.868L163.744 50.8682L218.678 105.802L162.678 161.803Z" fill="#FF6C2C"/>
<path d="M106.621 213.241L54 160.621L106.621 108L159.241 160.621L106.621 213.241Z" fill="white"/>
<path d="M52.6205 159.241L0 106.621L52.6205 54L105.241 106.621L52.6205 159.241Z" fill="white"/>
<path d="M106.621 105.241L54 52.6205L106.621 0L159.241 52.6205L106.621 105.241Z" fill="white"/>
</svg>
